<?xml version="1.0" encoding="utf-8"?>
<!-- Generator: Adobe Illustrator 24.1.1, SVG Export Plug-In . SVG Version: 6.00 Build 0)  -->
<svg version="1.1" height="24px" wight="24px" id="Layer_1" xmlns="http://www.w3.org/2000/svg" xmlns:xlink="http://www.w3.org/1999/xlink" x="0px" y="0px"
	 viewBox="0 0 512 512" style="enable-background:new 0 0 512 512;" xml:space="preserve">
<g>
	<path d="M256,122.01c-3.9-3.9-8.92-5.01-13.93-5.01H75.49c-11.14,0-25.63,6.69-25.63,17.27v352.66c0,11.14,14.48,25.07,25.63,25.07
		h264.08c11.14,0,16.71-14.49,16.71-25.07V232.88c0-5.01-0.56-9.47-4.46-13.37L256,122.01z M311.15,233.99h-71.87v-71.87
		L311.15,233.99z M94.43,467.98V155.99h105.85v95.83c0,11.14,10.03,21.17,21.17,21.17h95.83v194.99H94.43z M458.79,100.28
		L361.85,3.34C358.51,0.56,355.17,0,350.71,0H184.13c-9.47,0-17.27,5.01-17.27,13.93v53.48c0,9.47,7.24,16.71,16.71,16.71
		s16.71-7.8,16.71-16.71V33.43h117v94.15c0,9.47,7.8,17.27,17.27,17.27h94.16v206.14h-22.85c-9.47,0-16.71,7.24-16.71,16.71
		c0,9.47,7.8,16.71,16.71,16.71h42.34c9.47,0,13.93-8.36,13.93-17.83V112.54C462.14,108.08,461.58,103.63,458.79,100.28z M350.71,39
		l71.87,72.43h-71.87V39z"/>
</g>
</svg>
