<?xml version="1.0" encoding="UTF-8" standalone="no"?>
<svg 
    role="img" 
    xmlns="http://www.w3.org/2000/svg" 
    width="1000mm"
    height="1000mm"
    viewBox="0 0 1000 1000"
    style="max-width:1.6em; height: auto;">
    
    <path 
        id="path" 
        style="opacity:1;vector-effect:none;fill:#000000;fill-opacity:1;"
        d=" M 688 763C 688 763 688 861 688 861C 688 861 852 861 852 861C 852 861 852 763 852 763C 852 763 688 763 688 763M 369 512C 371 512 373 512 375 512C 400 515 425 525 450 531C 507 549 565 527 621 514C 635 512 650 513 665 514C 642 535 626 562 617 592C 613 593 608 594 603 596C 540 616 470 619 406 597C 355 578 294 592 255 630C 209 674 212 741 213 800C 210 827 215 864 250 862C 250 862 579 862 579 862C 579 862 579 871 579 871C 579 898 592 923 613 938C 497 938 380 937 263 937C 203 944 143 898 138 836C 138 768 131 695 163 632C 198 553 286 512 369 512C 369 512 369 512 369 512M 768 507C 768 507 769 507 769 507C 820 508 867 541 885 591C 890 603 888 617 879 628C 870 638 857 643 843 641C 830 638 819 629 815 616C 806 592 783 579 760 583C 737 587 720 608 719 634C 719 634 719 688 719 688C 719 688 877 688 877 688C 904 688 927 710 927 737C 927 737 927 887 927 887C 927 914 904 936 877 936C 877 936 662 936 662 936C 635 936 613 914 613 887C 613 887 613 737 613 737C 613 717 626 699 644 691C 644 691 644 633 644 633C 644 633 644 633 644 633C 644 633 644 633 644 633C 645 572 688 520 747 509C 754 508 761 507 768 507C 768 507 768 507 768 507M 504 156C 503 156 501 156 500 156C 435 155 374 200 356 262C 329 343 385 438 470 453C 553 473 643 407 649 321C 660 237 588 156 504 156C 504 156 504 156 504 156M 495 81C 497 81 498 81 500 81C 542 81 584 93 620 116C 713 172 752 300 705 398C 662 498 542 554 439 522C 333 494 259 381 277 273C 291 167 389 81 495 81C 495 81 495 81 495 81"
        transform="translate(1000,0) scale(-1,1)">
    </path>    
</svg>